# xmcd
#
# Track frame offsets: 
#        150
#        18220
#        33443
#        55596
#        75758
#        96822
#        109183
#        127682
#        148308
#        166989
#        186853
#        207041
#        221792
#        234519
#        252925
#        269977
#        291615
#
# Disc length: 4108 seconds
#
# Revision: 1
# Processed by: cddbd v1.5.2PL0 Copyright (c) Steve Scherf et al.
# Submitted via: ExactAudioCopy v0.99pb5
#
DISCID=f4100a11
DTITLE=Eleanor McEvoy - Special Edition {Rem and Exp 2003}
DYEAR=1993
DGENRE=Folk
TTITLE0=Finding Myself Lost Again
TTITLE1=Only A Woman's Heart
TTITLE2=Apologise
TTITLE3=Boundaries Of Your Mind
TTITLE4=For You
TTITLE5=Go Now
TTITLE6=It's Mine
TTITLE7=Not Quite Love
TTITLE8=Promises We Keep
TTITLE9=Music Of It All
TTITLE10=Leave Her Now
TTITLE11=Breathing Hope
TTITLE12=Stray Thoughts
TTITLE13=Et C'est Bien
TTITLE14=Wilderness
TTITLE15=Cat's Eyes
TTITLE16=Corazon De Mujer
EXTD=
EXTT0=
EXTT1=
EXTT2=
EXTT3=
EXTT4=
EXTT5=
EXTT6=
EXTT7=
EXTT8=
EXTT9=
EXTT10=
EXTT11=
EXTT12=
EXTT13=
EXTT14=
EXTT15=
EXTT16=
PLAYORDER=
